<mxfile host="app.diagrams.net" modified="2023-05-17T10:32:23.152Z" agent="Mozilla/5.0 (Windows NT 10.0; Win64; x64) AppleWebKit/537.36 (KHTML, like Gecko) Chrome/113.0.0.0 Safari/537.36" etag="aqxmydsaAVolYWcWeG3z" version="21.3.0" type="github">
  <diagram name="Page-1" id="h_sSUmzBUapg6L8vjjK3">
    <mxGraphModel dx="1050" dy="562" grid="1" gridSize="10" guides="1" tooltips="1" connect="1" arrows="1" fold="1" page="1" pageScale="1" pageWidth="850" pageHeight="1100" math="0" shadow="0">
      <root>
        <mxCell id="0" />
        <mxCell id="1" parent="0" />
        <mxCell id="ZFgtmmhuRHfqjaJ7tAt9-1" value="Vehicle&lt;br&gt;Rental&lt;br&gt;System" style="ellipse;whiteSpace=wrap;html=1;aspect=fixed;sketch=1;hachureGap=4;jiggle=2;curveFitting=1;fontFamily=Architects Daughter;fontSource=https%3A%2F%2Ffonts.googleapis.com%2Fcss%3Ffamily%3DArchitects%2BDaughter;fontSize=20;" vertex="1" parent="1">
          <mxGeometry x="175" y="204" width="150" height="150" as="geometry" />
        </mxCell>
        <mxCell id="ZFgtmmhuRHfqjaJ7tAt9-2" value="Admin" style="rounded=1;whiteSpace=wrap;html=1;sketch=1;hachureGap=4;jiggle=2;curveFitting=1;fontFamily=Architects Daughter;fontSource=https%3A%2F%2Ffonts.googleapis.com%2Fcss%3Ffamily%3DArchitects%2BDaughter;fontSize=20;fillColor=#f8cecc;strokeColor=#b85450;" vertex="1" parent="1">
          <mxGeometry x="190" y="20" width="120" height="60" as="geometry" />
        </mxCell>
        <mxCell id="ZFgtmmhuRHfqjaJ7tAt9-3" value="Rentee" style="rounded=1;whiteSpace=wrap;html=1;sketch=1;hachureGap=4;jiggle=2;curveFitting=1;fontFamily=Architects Daughter;fontSource=https%3A%2F%2Ffonts.googleapis.com%2Fcss%3Ffamily%3DArchitects%2BDaughter;fontSize=20;" vertex="1" parent="1">
          <mxGeometry x="190" y="490" width="120" height="60" as="geometry" />
        </mxCell>
        <mxCell id="ZFgtmmhuRHfqjaJ7tAt9-4" value="Rentee" style="rounded=1;whiteSpace=wrap;html=1;sketch=1;hachureGap=4;jiggle=2;curveFitting=1;fontFamily=Architects Daughter;fontSource=https%3A%2F%2Ffonts.googleapis.com%2Fcss%3Ffamily%3DArchitects%2BDaughter;fontSize=20;" vertex="1" parent="1">
          <mxGeometry x="580" y="249" width="120" height="60" as="geometry" />
        </mxCell>
        <mxCell id="ZFgtmmhuRHfqjaJ7tAt9-5" value="" style="endArrow=classic;html=1;rounded=0;sketch=1;hachureGap=4;jiggle=2;curveFitting=1;fontFamily=Architects Daughter;fontSource=https%3A%2F%2Ffonts.googleapis.com%2Fcss%3Ffamily%3DArchitects%2BDaughter;fontSize=16;exitX=0.356;exitY=0.021;exitDx=0;exitDy=0;exitPerimeter=0;" edge="1" parent="1" source="ZFgtmmhuRHfqjaJ7tAt9-1">
          <mxGeometry width="50" height="50" relative="1" as="geometry">
            <mxPoint x="225" y="210" as="sourcePoint" />
            <mxPoint x="228" y="80" as="targetPoint" />
            <Array as="points" />
          </mxGeometry>
        </mxCell>
        <mxCell id="ZFgtmmhuRHfqjaJ7tAt9-6" value="" style="endArrow=classic;html=1;rounded=0;sketch=1;hachureGap=4;jiggle=2;curveFitting=1;fontFamily=Architects Daughter;fontSource=https%3A%2F%2Ffonts.googleapis.com%2Fcss%3Ffamily%3DArchitects%2BDaughter;fontSize=16;exitX=0.66;exitY=1.027;exitDx=0;exitDy=0;exitPerimeter=0;" edge="1" parent="1" source="ZFgtmmhuRHfqjaJ7tAt9-2">
          <mxGeometry width="50" height="50" relative="1" as="geometry">
            <mxPoint x="270" y="204" as="sourcePoint" />
            <mxPoint x="269" y="210" as="targetPoint" />
            <Array as="points" />
          </mxGeometry>
        </mxCell>
        <mxCell id="ZFgtmmhuRHfqjaJ7tAt9-7" value="" style="endArrow=classic;html=1;rounded=0;sketch=1;hachureGap=4;jiggle=2;curveFitting=1;fontFamily=Architects Daughter;fontSource=https%3A%2F%2Ffonts.googleapis.com%2Fcss%3Ffamily%3DArchitects%2BDaughter;fontSize=16;exitX=0.333;exitY=0;exitDx=0;exitDy=0;exitPerimeter=0;entryX=0.367;entryY=0.973;entryDx=0;entryDy=0;entryPerimeter=0;" edge="1" parent="1" source="ZFgtmmhuRHfqjaJ7tAt9-3" target="ZFgtmmhuRHfqjaJ7tAt9-1">
          <mxGeometry width="50" height="50" relative="1" as="geometry">
            <mxPoint x="220" y="490" as="sourcePoint" />
            <mxPoint x="220" y="363" as="targetPoint" />
            <Array as="points" />
          </mxGeometry>
        </mxCell>
        <mxCell id="ZFgtmmhuRHfqjaJ7tAt9-8" value="" style="endArrow=classic;html=1;rounded=0;sketch=1;hachureGap=4;jiggle=2;curveFitting=1;fontFamily=Architects Daughter;fontSource=https%3A%2F%2Ffonts.googleapis.com%2Fcss%3Ffamily%3DArchitects%2BDaughter;fontSize=16;exitX=0.687;exitY=0.987;exitDx=0;exitDy=0;exitPerimeter=0;entryX=0.75;entryY=0;entryDx=0;entryDy=0;" edge="1" parent="1" source="ZFgtmmhuRHfqjaJ7tAt9-1" target="ZFgtmmhuRHfqjaJ7tAt9-3">
          <mxGeometry width="50" height="50" relative="1" as="geometry">
            <mxPoint x="270" y="354" as="sourcePoint" />
            <mxPoint x="280" y="480" as="targetPoint" />
            <Array as="points" />
          </mxGeometry>
        </mxCell>
        <mxCell id="ZFgtmmhuRHfqjaJ7tAt9-9" value="" style="endArrow=classic;html=1;rounded=0;sketch=1;hachureGap=4;jiggle=2;curveFitting=1;fontFamily=Architects Daughter;fontSource=https%3A%2F%2Ffonts.googleapis.com%2Fcss%3Ffamily%3DArchitects%2BDaughter;fontSize=16;entryX=0;entryY=0.25;entryDx=0;entryDy=0;" edge="1" parent="1" target="ZFgtmmhuRHfqjaJ7tAt9-4">
          <mxGeometry relative="1" as="geometry">
            <mxPoint x="325" y="260" as="sourcePoint" />
            <mxPoint x="425" y="260" as="targetPoint" />
          </mxGeometry>
        </mxCell>
        <mxCell id="ZFgtmmhuRHfqjaJ7tAt9-10" value="Response" style="edgeLabel;resizable=0;html=1;align=center;verticalAlign=middle;sketch=1;hachureGap=4;jiggle=2;curveFitting=1;fontFamily=Architects Daughter;fontSource=https%3A%2F%2Ffonts.googleapis.com%2Fcss%3Ffamily%3DArchitects%2BDaughter;fontSize=20;" connectable="0" vertex="1" parent="ZFgtmmhuRHfqjaJ7tAt9-9">
          <mxGeometry relative="1" as="geometry" />
        </mxCell>
        <mxCell id="ZFgtmmhuRHfqjaJ7tAt9-11" value="" style="endArrow=classic;html=1;rounded=0;sketch=1;hachureGap=4;jiggle=2;curveFitting=1;fontFamily=Architects Daughter;fontSource=https%3A%2F%2Ffonts.googleapis.com%2Fcss%3Ffamily%3DArchitects%2BDaughter;fontSize=16;exitX=0;exitY=0.75;exitDx=0;exitDy=0;entryX=1.001;entryY=0.613;entryDx=0;entryDy=0;entryPerimeter=0;" edge="1" parent="1" source="ZFgtmmhuRHfqjaJ7tAt9-4" target="ZFgtmmhuRHfqjaJ7tAt9-1">
          <mxGeometry relative="1" as="geometry">
            <mxPoint x="320" y="300" as="sourcePoint" />
            <mxPoint x="350" y="360" as="targetPoint" />
          </mxGeometry>
        </mxCell>
        <mxCell id="ZFgtmmhuRHfqjaJ7tAt9-12" value="List Vehicle" style="edgeLabel;resizable=0;html=1;align=center;verticalAlign=middle;sketch=1;hachureGap=4;jiggle=2;curveFitting=1;fontFamily=Architects Daughter;fontSource=https%3A%2F%2Ffonts.googleapis.com%2Fcss%3Ffamily%3DArchitects%2BDaughter;fontSize=20;" connectable="0" vertex="1" parent="ZFgtmmhuRHfqjaJ7tAt9-11">
          <mxGeometry relative="1" as="geometry" />
        </mxCell>
        <mxCell id="ZFgtmmhuRHfqjaJ7tAt9-13" value="" style="endArrow=classic;html=1;rounded=0;sketch=1;hachureGap=4;jiggle=2;curveFitting=1;fontFamily=Architects Daughter;fontSource=https%3A%2F%2Ffonts.googleapis.com%2Fcss%3Ffamily%3DArchitects%2BDaughter;fontSize=16;exitX=1;exitY=1;exitDx=0;exitDy=0;entryX=0.25;entryY=1;entryDx=0;entryDy=0;" edge="1" parent="1" source="ZFgtmmhuRHfqjaJ7tAt9-1" target="ZFgtmmhuRHfqjaJ7tAt9-4">
          <mxGeometry width="50" height="50" relative="1" as="geometry">
            <mxPoint x="370" y="300" as="sourcePoint" />
            <mxPoint x="640" y="332" as="targetPoint" />
            <Array as="points">
              <mxPoint x="580" y="332" />
              <mxPoint x="610" y="332" />
            </Array>
          </mxGeometry>
        </mxCell>
        <mxCell id="ZFgtmmhuRHfqjaJ7tAt9-15" value="" style="endArrow=classic;html=1;rounded=0;sketch=1;hachureGap=4;jiggle=2;curveFitting=1;fontFamily=Architects Daughter;fontSource=https%3A%2F%2Ffonts.googleapis.com%2Fcss%3Ffamily%3DArchitects%2BDaughter;fontSize=16;exitX=0.25;exitY=0;exitDx=0;exitDy=0;entryX=0.884;entryY=0.197;entryDx=0;entryDy=0;entryPerimeter=0;" edge="1" parent="1" source="ZFgtmmhuRHfqjaJ7tAt9-4" target="ZFgtmmhuRHfqjaJ7tAt9-1">
          <mxGeometry width="50" height="50" relative="1" as="geometry">
            <mxPoint x="610" y="230" as="sourcePoint" />
            <mxPoint x="310" y="230" as="targetPoint" />
            <Array as="points">
              <mxPoint x="610" y="230" />
            </Array>
          </mxGeometry>
        </mxCell>
        <mxCell id="ZFgtmmhuRHfqjaJ7tAt9-16" value="&lt;p style=&quot;line-height: 120%; font-size: 17px;&quot;&gt;Admin Response&lt;/p&gt;" style="text;html=1;align=center;verticalAlign=middle;resizable=0;points=[];autosize=1;strokeColor=none;fillColor=none;fontSize=20;fontFamily=Architects Daughter;" vertex="1" parent="1">
          <mxGeometry x="370" y="309" width="150" height="70" as="geometry" />
        </mxCell>
        <mxCell id="ZFgtmmhuRHfqjaJ7tAt9-17" value="&lt;p style=&quot;line-height: 120%; font-size: 17px;&quot;&gt;Request for login/registration&lt;/p&gt;" style="text;html=1;align=center;verticalAlign=middle;resizable=0;points=[];autosize=1;strokeColor=none;fillColor=none;fontSize=20;fontFamily=Architects Daughter;" vertex="1" parent="1">
          <mxGeometry x="327" y="186" width="260" height="70" as="geometry" />
        </mxCell>
        <mxCell id="ZFgtmmhuRHfqjaJ7tAt9-18" value="&lt;p style=&quot;line-height: 120%; font-size: 17px;&quot;&gt;Select Vehicle&lt;/p&gt;&lt;p style=&quot;line-height: 120%; font-size: 17px;&quot;&gt;&lt;br&gt;&lt;/p&gt;" style="text;html=1;align=center;verticalAlign=middle;resizable=0;points=[];autosize=1;strokeColor=none;fillColor=none;fontSize=20;fontFamily=Architects Daughter;rotation=-90;" vertex="1" parent="1">
          <mxGeometry x="175" y="370" width="130" height="110" as="geometry" />
        </mxCell>
        <mxCell id="ZFgtmmhuRHfqjaJ7tAt9-19" value="&lt;p style=&quot;line-height: 120%; font-size: 17px;&quot;&gt;Response&lt;/p&gt;" style="text;html=1;align=center;verticalAlign=middle;resizable=0;points=[];autosize=1;strokeColor=none;fillColor=none;fontSize=20;fontFamily=Architects Daughter;rotation=90;" vertex="1" parent="1">
          <mxGeometry x="240" y="390" width="100" height="70" as="geometry" />
        </mxCell>
        <mxCell id="ZFgtmmhuRHfqjaJ7tAt9-20" value="&lt;p style=&quot;line-height: 120%; font-size: 17px;&quot;&gt;Response&lt;/p&gt;&lt;p style=&quot;line-height: 120%; font-size: 17px;&quot;&gt;&lt;br&gt;&lt;/p&gt;" style="text;html=1;align=center;verticalAlign=middle;resizable=0;points=[];autosize=1;strokeColor=none;fillColor=none;fontSize=20;fontFamily=Architects Daughter;rotation=-90;" vertex="1" parent="1">
          <mxGeometry x="185" y="94" width="100" height="110" as="geometry" />
        </mxCell>
        <mxCell id="ZFgtmmhuRHfqjaJ7tAt9-21" value="&lt;p style=&quot;line-height: 120%; font-size: 19px;&quot;&gt;&lt;font style=&quot;font-size: 15px;&quot;&gt;Request for login&lt;/font&gt;&lt;/p&gt;&lt;p style=&quot;line-height: 120%; font-size: 19px;&quot;&gt;&lt;br&gt;&lt;/p&gt;" style="text;html=1;align=center;verticalAlign=middle;resizable=0;points=[];autosize=1;strokeColor=none;fillColor=none;fontSize=20;fontFamily=Architects Daughter;rotation=-90;" vertex="1" parent="1">
          <mxGeometry x="230" y="86" width="150" height="120" as="geometry" />
        </mxCell>
      </root>
    </mxGraphModel>
  </diagram>
</mxfile>
